<svg width="13" height="12" viewBox="0 0 13 12" fill="none" xmlns="http://www.w3.org/2000/svg">
<path fill-rule="evenodd" clip-rule="evenodd" d="M1.9001 1.6501H11.1001V3.8501H1.9001V1.6501ZM1.9001 4.6501H11.1001V10.3751C11.1001 10.4632 11.0712 10.5298 11.0413 10.5672C11.0268 10.5853 11.0144 10.5939 11.0078 10.5974C11.0045 10.5991 11.0025 10.5997 11.0017 10.5999L11.0001 10.6001H2.0001L1.99845 10.5999C1.99766 10.5997 1.99566 10.5991 1.99244 10.5974C1.98582 10.5939 1.9734 10.5853 1.95889 10.5672C1.929 10.5298 1.9001 10.4632 1.9001 10.3751V4.6501ZM1.1001 1.6251V4.2501V10.3751C1.1001 10.8533 1.42436 11.4001 2.0001 11.4001H11.0001C11.5758 11.4001 11.9001 10.8533 11.9001 10.3751V4.2501V1.6251V1.2501C11.9001 1.06628 11.7761 0.911414 11.6072 0.864594C11.4575 0.705665 11.2531 0.600098 11.0001 0.600098H2.0001C1.74713 0.600098 1.54271 0.705665 1.39301 0.864594C1.2241 0.911414 1.1001 1.06628 1.1001 1.2501V1.6251ZM9.19207 6.31042C9.33972 6.1461 9.32621 5.89319 9.16189 5.74554C8.99757 5.59788 8.74466 5.61139 8.59701 5.77571L7.34551 7.16847L6.3815 6.13937C6.30461 6.05729 6.19671 6.01137 6.08425 6.01287C5.97179 6.01437 5.86515 6.06314 5.79047 6.14724L3.4549 8.77747C3.30822 8.94266 3.32322 9.19548 3.48841 9.34217C3.6536 9.48885 3.90642 9.47385 4.0531 9.30866L6.09748 7.00636L7.05972 8.03357C7.13633 8.11535 7.24373 8.16125 7.35579 8.16009C7.46784 8.15893 7.57427 8.11082 7.64917 8.02746L9.19207 6.31042Z" fill="black" fill-opacity="0.45"/>
</svg>
