<svg width="12" height="12" viewBox="0 0 12 12" fill="none" xmlns="http://www.w3.org/2000/svg">
<path fill-rule="evenodd" clip-rule="evenodd" d="M1.5 2.25C1.5 2.11193 1.61193 2 1.75 2H10.25C10.3881 2 10.5 2.11193 10.5 2.25V8.25C10.5 8.38807 10.3881 8.5 10.25 8.5H6H1.75C1.61193 8.5 1.5 8.38807 1.5 8.25V2.25ZM6.5 9.5H10.25C10.9404 9.5 11.5 8.94036 11.5 8.25V2.25C11.5 1.55964 10.9404 1 10.25 1H1.75C1.05964 1 0.5 1.55964 0.5 2.25V8.25C0.5 8.94036 1.05964 9.5 1.75 9.5H5.5V10.25H2.5C2.22386 10.25 2 10.4738 2 10.75C2 11.0261 2.22386 11.25 2.5 11.25H5.99559C5.99706 11.25 5.99853 11.25 6 11.25C6.00147 11.25 6.00294 11.25 6.00441 11.25H9.5C9.77614 11.25 10 11.0261 10 10.75C10 10.4738 9.77614 10.25 9.5 10.25H6.5V9.5ZM9.27735 2.58399C9.50711 2.73717 9.5692 3.0476 9.41603 3.27737L7.41603 6.27737C7.27615 6.48718 7.00193 6.56 6.77639 6.44723L5.14963 5.63385L3.9 7.30002C3.73431 7.52093 3.42091 7.5657 3.2 7.40002C2.97909 7.23433 2.93431 6.92093 3.1 6.70002L4.6 4.70002C4.74499 4.5067 5.00747 4.44474 5.22361 4.55281L6.82881 5.35541L8.58397 2.72267C8.73715 2.4929 9.04759 2.43082 9.27735 2.58399Z" fill="black" fill-opacity="0.45"/>
</svg>
