<svg width="12" height="12" viewBox="0 0 12 12" fill="none" xmlns="http://www.w3.org/2000/svg">
<path fill-rule="evenodd" clip-rule="evenodd" d="M8.5001 1.1001C8.27918 1.1001 8.1001 1.27918 8.1001 1.5001V10.1001H7.1501V4.5001C7.1501 4.27918 6.97101 4.1001 6.7501 4.1001H5.2501C5.02918 4.1001 4.8501 4.27918 4.8501 4.5001V10.1001H3.9001V7.0001C3.9001 6.77918 3.72101 6.6001 3.5001 6.6001H2.0001C1.77918 6.6001 1.6001 6.77918 1.6001 7.0001V10.1001H1.0001C0.779184 10.1001 0.600098 10.2792 0.600098 10.5001C0.600098 10.721 0.779184 10.9001 1.0001 10.9001H2.0001H3.5001H5.2501H6.7501H8.5001H10.0001H11.0001C11.221 10.9001 11.4001 10.721 11.4001 10.5001C11.4001 10.2792 11.221 10.1001 11.0001 10.1001H10.4001V1.5001C10.4001 1.27918 10.221 1.1001 10.0001 1.1001H8.5001ZM9.6001 10.1001V1.9001H8.9001V10.1001H9.6001ZM6.3501 4.9001V10.1001H5.6501V4.9001H6.3501ZM3.1001 10.1001V7.4001H2.4001V10.1001H3.1001Z" fill="black" fill-opacity="0.45"/>
</svg>
