<svg width="18" height="18" viewBox="0 0 18 18" fill="none" xmlns="http://www.w3.org/2000/svg">
<path d="M6.61926 16.9902L6.44805 17.5652C6.76115 17.6584 7.09129 17.484 7.19076 17.1729L6.61926 16.9902ZM2.99554 14.7798L2.53696 14.3929C2.33878 14.6277 2.35011 14.9744 2.56322 15.1958L2.99554 14.7798ZM0.836174 10.6802L0.248345 10.8004C0.309928 11.1015 0.589023 11.3074 0.894847 11.2773L0.836174 10.6802ZM1.04861 6.50072L1.05718 5.90078C0.791935 5.89699 0.555685 6.06783 0.47619 6.32091L1.04861 6.50072ZM3.32755 2.89639L2.91898 2.45699C2.72486 2.63749 2.67218 2.92397 2.7894 3.16172L3.32755 2.89639ZM6.77273 0.968262L7.3072 0.695595C7.17766 0.441689 6.88737 0.313964 6.61266 0.390008L6.77273 0.968262ZM11.2298 0.968262L11.3899 0.390008C11.1152 0.313964 10.8249 0.441689 10.6954 0.695595L11.2298 0.968262ZM14.675 2.89639L15.2132 3.16172C15.3304 2.92397 15.2777 2.63749 15.0836 2.45699L14.675 2.89639ZM16.9539 6.50072L17.5264 6.32092C17.4469 6.06783 17.2106 5.89699 16.9454 5.90078L16.9539 6.50072ZM17.1664 10.6802L17.1077 11.2773C17.4135 11.3074 17.6926 11.1015 17.7542 10.8004L17.1664 10.6802ZM15.007 14.7798L15.4393 15.1958C15.6524 14.9744 15.6638 14.6278 15.4656 14.3929L15.007 14.7798ZM11.3833 16.9902L10.8118 17.1729C10.9113 17.484 11.2414 17.6584 11.5545 17.5652L11.3833 16.9902ZM6.79046 16.4151C5.49552 16.0296 4.34187 15.3135 3.42786 14.3637L2.56322 15.1958C3.6177 16.2916 4.95008 17.1192 6.44805 17.5652L6.79046 16.4151ZM3.45411 15.1667C3.9092 14.6273 4.18399 13.9292 4.18399 13.1684H2.98399C2.98399 13.6355 2.81623 14.0619 2.53696 14.3929L3.45411 15.1667ZM4.18399 13.1684C4.18399 11.4562 2.79595 10.0681 1.08371 10.0681V11.2681C2.13321 11.2681 2.98399 12.1189 2.98399 13.1684H4.18399ZM1.08371 10.0681C0.98061 10.0681 0.878453 10.0732 0.777501 10.0831L0.894847 11.2773C0.956747 11.2712 1.01974 11.2681 1.08371 11.2681V10.0681ZM1.424 10.56C1.32112 10.057 1.26699 9.53575 1.26699 9.00125H0.0669922C0.0669922 9.61697 0.129368 10.2188 0.248345 10.8004L1.424 10.56ZM1.26699 9.00125C1.26699 8.19176 1.39115 7.4124 1.62104 6.68052L0.47619 6.32091C0.210173 7.1678 0.0669922 8.06838 0.0669922 9.00125H1.26699ZM1.04005 7.10066C1.05458 7.10086 1.06913 7.10097 1.08371 7.10097V5.90097C1.07485 5.90097 1.066 5.9009 1.05718 5.90078L1.04005 7.10066ZM1.08371 7.10097C2.79595 7.10097 4.18399 5.71292 4.18399 4.00068H2.98399C2.98399 5.05018 2.13321 5.90097 1.08371 5.90097V7.10097ZM4.18399 4.00068C4.18399 3.51022 4.06966 3.04475 3.86569 2.63105L2.7894 3.16172C2.9138 3.41403 2.98399 3.69831 2.98399 4.00068H4.18399ZM3.73611 3.33578C4.63108 2.50362 5.72272 1.88149 6.9328 1.54652L6.61266 0.390008C5.21278 0.77752 3.95165 1.49677 2.91898 2.45699L3.73611 3.33578ZM6.23827 1.24093C6.75025 2.24449 7.79476 2.93383 9.00128 2.93383V1.73383C8.26315 1.73383 7.62222 1.31309 7.3072 0.695595L6.23827 1.24093ZM9.00128 2.93383C10.2078 2.93383 11.2523 2.24449 11.7643 1.24093L10.6954 0.695595C10.3803 1.31309 9.7394 1.73383 9.00128 1.73383V2.93383ZM11.0698 1.54652C12.2798 1.88149 13.3715 2.50362 14.2664 3.33578L15.0836 2.45699C14.0509 1.49677 12.7898 0.77752 11.3899 0.390008L11.0698 1.54652ZM14.1369 2.63105C13.9329 3.04475 13.8186 3.51022 13.8186 4.00068H15.0186C15.0186 3.69831 15.0888 3.41402 15.2132 3.16172L14.1369 2.63105ZM13.8186 4.00068C13.8186 5.71292 15.2066 7.10097 16.9188 7.10097V5.90097C15.8694 5.90097 15.0186 5.05018 15.0186 4.00068H13.8186ZM16.9188 7.10097C16.9334 7.10097 16.948 7.10086 16.9625 7.10066L16.9454 5.90078C16.9366 5.9009 16.9277 5.90097 16.9188 5.90097V7.10097ZM16.3815 6.68052C16.6114 7.4124 16.7356 8.19177 16.7356 9.00125H17.9356C17.9356 8.06837 17.7924 7.1678 17.5264 6.32092L16.3815 6.68052ZM16.7356 9.00125C16.7356 9.53574 16.6814 10.057 16.5785 10.56L17.7542 10.8004C17.8732 10.2188 17.9356 9.61698 17.9356 9.00125H16.7356ZM17.225 10.0831C17.1241 10.0732 17.022 10.0681 16.9188 10.0681V11.2681C16.9828 11.2681 17.0458 11.2712 17.1077 11.2773L17.225 10.0831ZM16.9188 10.0681C15.2066 10.0681 13.8186 11.4562 13.8186 13.1684H15.0186C15.0186 12.1189 15.8694 11.2681 16.9188 11.2681V10.0681ZM13.8186 13.1684C13.8186 13.9292 14.0933 14.6273 14.5484 15.1667L15.4656 14.3929C15.1863 14.0619 15.0186 13.6355 15.0186 13.1684H13.8186ZM14.5747 14.3637C13.6607 15.3135 12.507 16.0296 11.2121 16.4151L11.5545 17.5652C13.0525 17.1192 14.3849 16.2916 15.4393 15.1958L14.5747 14.3637ZM11.9548 16.8075C11.5554 15.5579 10.3849 14.652 9.00128 14.652V15.852C9.8479 15.852 10.5667 16.406 10.8118 17.1729L11.9548 16.8075ZM9.00128 14.652C7.61764 14.652 6.44719 15.5579 6.04775 16.8075L7.19076 17.1729C7.4359 16.406 8.15466 15.852 9.00128 15.852V14.652ZM9.00114 12.5183C10.9435 12.5183 12.5181 10.9437 12.5181 9.00129H11.3181C11.3181 10.2809 10.2808 11.3183 9.00114 11.3183V12.5183ZM12.5181 9.00129C12.5181 7.0589 10.9435 5.48429 9.00114 5.48429V6.68429C10.2808 6.68429 11.3181 7.72164 11.3181 9.00129H12.5181ZM9.00114 5.48429C7.05875 5.48429 5.48414 7.0589 5.48414 9.00129H6.68414C6.68414 7.72164 7.72149 6.68429 9.00114 6.68429V5.48429ZM5.48414 9.00129C5.48414 10.9437 7.05875 12.5183 9.00114 12.5183V11.3183C7.72149 11.3183 6.68414 10.2809 6.68414 9.00129H5.48414Z" fill="#4980FF"/>
</svg>
