<svg width="28" height="28" viewBox="0 0 28 28" fill="none" xmlns="http://www.w3.org/2000/svg">
<path d="M5.32259 1.1665H17.7184L23.9163 7.58317V25.5498C23.9163 26.2586 23.3614 26.8332 22.6768 26.8332H5.32259C4.63799 26.8332 4.08301 26.2586 4.08301 25.5498V2.44984C4.08301 1.74107 4.63799 1.1665 5.32259 1.1665Z" fill="url(#paint0_linear_34189_132187)"/>
<g clip-path="url(#clip0_34189_132187)">
<path fill-rule="evenodd" clip-rule="evenodd" d="M8.66699 10.7082H19.3337V13.2082H8.66699V10.7082ZM8.66699 14.2082H19.3337V20.854C19.3337 20.9498 19.3022 21.02 19.2724 21.0573C19.2592 21.0737 19.2497 21.0806 19.245 21.0832H8.75564C8.75091 21.0806 8.74145 21.0737 8.72828 21.0573C8.69846 21.02 8.66699 20.9498 8.66699 20.854V14.2082ZM7.66699 10.6457V13.7082V20.854C7.66699 21.423 8.05367 22.0832 8.75033 22.0832H19.2503C19.947 22.0832 20.3337 21.423 20.3337 20.854V13.7082V10.6457V10.2082C20.3337 9.98174 20.1831 9.79046 19.9767 9.72893C19.7973 9.54121 19.5531 9.4165 19.2503 9.4165H8.75033C8.44755 9.4165 8.20332 9.54121 8.02394 9.72893C7.81751 9.79046 7.66699 9.98174 7.66699 10.2082V10.6457ZM19.2416 21.0845C19.2416 21.0844 19.2424 21.084 19.244 21.0837C19.2424 21.0845 19.2416 21.0846 19.2416 21.0845ZM8.75908 21.0845L8.75856 21.0845L8.75672 21.0837C8.75759 21.0839 8.75822 21.0841 8.7586 21.0842C8.75893 21.0844 8.75909 21.0845 8.75908 21.0845ZM17.1661 16.1342C17.3506 15.9288 17.3338 15.6126 17.1284 15.4281C16.923 15.2435 16.6068 15.2604 16.4223 15.4658L14.9865 17.0636L13.8866 15.8895C13.7905 15.7869 13.6556 15.7295 13.5151 15.7314C13.3745 15.7333 13.2412 15.7943 13.1478 15.8994L10.423 18.968C10.2396 19.1745 10.2584 19.4905 10.4649 19.6738C10.6714 19.8572 10.9874 19.8384 11.1707 19.632L13.5316 16.9733L14.6292 18.145C14.725 18.2472 14.8592 18.3046 14.9993 18.3032C15.1394 18.3017 15.2724 18.2416 15.366 18.1374L17.1661 16.1342Z" fill="white"/>
</g>
<defs>
<linearGradient id="paint0_linear_34189_132187" x1="13.9997" y1="1.1665" x2="13.9997" y2="26.8332" gradientUnits="userSpaceOnUse">
<stop stop-color="#66B5FF"/>
<stop offset="1" stop-color="#1890FF"/>
</linearGradient>
<clipPath id="clip0_34189_132187">
<rect width="14" height="14" fill="white" transform="translate(7 8.75)"/>
</clipPath>
</defs>
</svg>
