<svg width="28" height="28" viewBox="0 0 28 28" fill="none" xmlns="http://www.w3.org/2000/svg">
<path d="M5.32259 1.1665H17.7184L23.9163 7.58317V25.5498C23.9163 26.2586 23.3614 26.8332 22.6768 26.8332H5.32259C4.63799 26.8332 4.08301 26.2586 4.08301 25.5498V2.44984C4.08301 1.74107 4.63799 1.1665 5.32259 1.1665Z" fill="url(#paint0_linear_34189_132203)"/>
<path fill-rule="evenodd" clip-rule="evenodd" d="M8.22949 11.375C8.22949 11.1679 8.39739 11 8.60449 11H18.5212C18.7283 11 18.8962 11.1679 18.8962 11.375V18.375C18.8962 18.5821 18.7283 18.75 18.5212 18.75H13.5625H8.60449C8.39739 18.75 8.22949 18.5821 8.22949 18.375V11.375ZM14.0625 19.75H18.5212C19.2806 19.75 19.8962 19.1344 19.8962 18.375V11.375C19.8962 10.6156 19.2806 10 18.5212 10H8.60449C7.8451 10 7.22949 10.6156 7.22949 11.375V18.375C7.22949 19.1344 7.8451 19.75 8.60449 19.75H13.0625V20.7916H9.47949C9.20335 20.7916 8.97949 21.0155 8.97949 21.2916C8.97949 21.5678 9.20335 21.7916 9.47949 21.7916H13.5579C13.5594 21.7917 13.561 21.7917 13.5625 21.7917C13.564 21.7917 13.5656 21.7917 13.5671 21.7916H17.6462C17.9223 21.7916 18.1462 21.5678 18.1462 21.2916C18.1462 21.0155 17.9223 20.7916 17.6462 20.7916H14.0625V19.75ZM17.3405 11.834C17.5703 11.9872 17.6324 12.2976 17.4792 12.5274L15.1458 16.0274C15.006 16.2372 14.7318 16.31 14.5062 16.1972L12.5461 15.2172L11.0465 17.2167C10.8808 17.4376 10.5674 17.4824 10.3465 17.3167C10.1256 17.151 10.0808 16.8376 10.2465 16.6167L11.9965 14.2834C12.1415 14.09 12.404 14.0281 12.6201 14.1361L14.5586 15.1054L16.6471 11.9727C16.8003 11.7429 17.1107 11.6808 17.3405 11.834Z" fill="white"/>
<defs>
<linearGradient id="paint0_linear_34189_132203" x1="13.9997" y1="1.1665" x2="13.9997" y2="26.8332" gradientUnits="userSpaceOnUse">
<stop stop-color="#768DEB"/>
<stop offset="1" stop-color="#2F54EB"/>
</linearGradient>
</defs>
</svg>
