<svg width="28" height="28" viewBox="0 0 28 28" fill="none" xmlns="http://www.w3.org/2000/svg">
<path d="M5.32259 1.1665H17.7184L23.9163 7.58317V25.5498C23.9163 26.2586 23.3614 26.8332 22.6768 26.8332H5.32259C4.63799 26.8332 4.08301 26.2586 4.08301 25.5498V2.44984C4.08301 1.74107 4.63799 1.1665 5.32259 1.1665Z" fill="url(#paint0_linear_34189_132213)"/>
<path fill-rule="evenodd" clip-rule="evenodd" d="M8.22949 11.6668C8.22949 11.6208 8.2668 11.5835 8.31283 11.5835H18.8128C18.8589 11.5835 18.8962 11.6208 18.8962 11.6668V13.6816C18.8957 13.6905 18.8954 13.6995 18.8954 13.7085V13.7918H15.6045H11.5261L11.5204 13.7918L11.5148 13.7918H8.22949V13.7085V11.6668ZM12.0204 14.7918H15.1045V16.7085H12.0204V14.7918ZM16.1045 14.7918V16.7085H18.8954V14.7918H16.1045ZM12.0204 17.7085H15.1045V19.9167H12.0204V17.7085ZM11.0204 19.9167V17.7085H8.22949V19.8335C8.22949 19.8795 8.2668 19.9168 8.31283 19.9168H9.1784C9.18143 19.9168 9.18446 19.9167 9.1875 19.9167H11.0204ZM17.9466 19.9168H18.8128C18.8554 19.9168 18.8905 19.8849 18.8955 19.8436L18.8954 19.8335V17.7085H16.1045V19.9167H17.9375C17.9405 19.9167 17.9436 19.9168 17.9466 19.9168ZM8.22949 16.7085V14.7918H11.0204V16.7085H8.22949ZM7.22949 17.2085V19.8335C7.22949 20.4318 7.71452 20.9168 8.31283 20.9168H18.8128C19.4111 20.9168 19.8962 20.4318 19.8962 19.8335V17.2085V14.2918V11.6668C19.8962 11.0685 19.4111 10.5835 18.8128 10.5835H8.31283C7.71452 10.5835 7.22949 11.0685 7.22949 11.6668V13.7085V14.2918V17.2085Z" fill="white"/>
<defs>
<linearGradient id="paint0_linear_34189_132213" x1="13.9997" y1="1.1665" x2="13.9997" y2="26.8332" gradientUnits="userSpaceOnUse">
<stop stop-color="#A9F483"/>
<stop offset="0.0001" stop-color="#A0E87D"/>
<stop offset="1" stop-color="#4DB818"/>
</linearGradient>
</defs>
</svg>
