<svg width="29" height="28" viewBox="0 0 29 28" fill="none" xmlns="http://www.w3.org/2000/svg">
<path d="M5.65609 1.1665H18.0519L24.2498 7.58317V25.5498C24.2498 26.2586 23.6949 26.8332 23.0103 26.8332H5.65609C4.97148 26.8332 4.4165 26.2586 4.4165 25.5498V2.44984C4.4165 1.74107 4.97148 1.1665 5.65609 1.1665Z" fill="url(#paint0_linear_34189_132169)"/>
<path fill-rule="evenodd" clip-rule="evenodd" d="M18.563 11.375V20.125C18.563 20.2592 18.5328 20.3863 18.4788 20.5H21C21.2761 20.5 21.5 20.7239 21.5 21C21.5 21.2761 21.2761 21.5 21 21.5H7C6.72386 21.5 6.5 21.2761 6.5 21C6.5 20.7239 6.72386 20.5 7 20.5H9.31418C9.26019 20.3863 9.22998 20.2592 9.22998 20.125V17.7917C9.22998 17.3084 9.62173 16.9167 10.105 16.9167C10.5882 16.9167 10.98 17.3084 10.98 17.7917V20.125C10.98 20.2592 10.9498 20.3863 10.8958 20.5H13.1052C13.0512 20.3863 13.021 20.2592 13.021 20.125V14.875C13.021 14.3918 13.4127 14 13.896 14C14.3792 14 14.771 14.3918 14.771 14.875V20.125C14.771 20.2592 14.7408 20.3863 14.6868 20.5H16.8972C16.8432 20.3863 16.813 20.2592 16.813 20.125V11.375C16.813 10.8918 17.2047 10.5 17.688 10.5C18.1712 10.5 18.563 10.8918 18.563 11.375Z" fill="white"/>
<defs>
<linearGradient id="paint0_linear_34189_132169" x1="14.3332" y1="1.1665" x2="14.3332" y2="26.8332" gradientUnits="userSpaceOnUse">
<stop stop-color="#5ADBDB"/>
<stop offset="1" stop-color="#13C2C2"/>
</linearGradient>
</defs>
</svg>
